<?xml version="1.0" standalone="no"?><!DOCTYPE svg PUBLIC "-//W3C//DTD SVG 1.1//EN" "http://www.w3.org/Graphics/SVG/1.1/DTD/svg11.dtd"><svg t="1754716673113" class="icon" viewBox="0 0 1024 1024" version="1.1" xmlns="http://www.w3.org/2000/svg" p-id="2177" xmlns:xlink="http://www.w3.org/1999/xlink" width="200" height="200"><path d="M768.487667 343.418531a2278.918777 2278.918777 0 0 1 112.751995 16.223338l-15.685223 94.76717a2178.329031 2178.329031 0 0 0-107.997241-15.353106c3.640687-31.879134 7.281374-63.758268 10.930469-95.637402zM135.508392 357.064801a2278.393274 2278.393274 0 0 1 112.899136-15.445594l11.157487 96.566493a2180.351168 2180.351168 0 0 0-108.072914 14.974743l-15.983709-96.095642z" fill="#BFBFBF" p-id="2178"></path><path d="M424.219923 741.901402a1720.056492 1720.056492 0 0 0-76.937892 98.26492l6.238776 67.668013a1706.56577 1706.56577 0 0 1 311.337603-2.883962l6.116858-67.176142a1801.559957 1801.559957 0 0 0-77.198541-96.717838" fill="#FFB875" p-id="2179"></path><path d="M663.95034 914.880284a1695.971623 1695.971623 0 0 0-309.508852 2.963839c-4.649653 0.466647-8.85368-3.607055-9.400203-9.13535l-6.579302-67.651198a10.783328 10.783328 0 0 1 1.904424-7.344434 1724.760797 1724.760797 0 0 1 76.921076-98.546589c3.451506-4.119946 9.391796-4.418432 13.200644-0.664237 3.817256 3.73738 4.056886 10.077052 0.60538 14.154958a1710.034092 1710.034092 0 0 0-74.63829 94.800802l4.670674 53.534075a1716.134135 1716.134135 0 0 1 296.085394-2.656945l4.573981-53.164121a1797.166749 1797.166749 0 0 0-74.877919-93.31678c-3.468322-4.027458-3.237101-10.350314 0.580156-14.104509 3.813052-3.771012 9.757546-3.531382 13.204848 0.538115a1806.495484 1806.495484 0 0 1 77.181725 97.01212c1.488225 2.005321 2.177686 4.611817 1.92124 7.243538l-6.448976 67.129897a11.01455 11.01455 0 0 1-3.15302 6.797911c-1.765691 1.719447-3.998029 2.593884-6.24298 2.408908z" fill="#FFB875" p-id="2180"></path><path d="M408.564128 339.075771c-121.063356 45.546425-235.219496 101.077413-341.324925 164.982823-25.291424 15.163924-40.42592 49.128256-34.279634 74.802246 6.154695 25.678195 33.447236 41.346602 60.781818 35.629126a2033.441456 2033.441456 0 0 1 325.337012-41.186849" fill="#FF7575" p-id="2181"></path><path d="M419.524025 583.317108a2023.469504 2023.469504 0 0 0-323.722665 41.052321c-32.694715 6.848359-65.360003-11.952048-73.023944-43.091274-7.336027-29.966302 9.328735-68.004335 38.815779-85.707491 106.509016-64.178671 221.085559-119.953493 342.581929-165.714323 5.801557-2.177686 12.456531 0.214405 14.844418 5.318093 2.387887 5.099484-0.361546 10.97251-6.108451 13.129176-120.630341 45.33202-234.366079 100.619174-340.067921 164.242913-21.369068 12.813873-34.767301 42.313528-29.71406 63.94745 4.75055 20.351693 26.489572 32.724144 48.535487 28.11653a2043.350347 2043.350347 0 0 1 326.951359-41.321378c5.6376-0.256446 10.379742 4.044274 10.594147 9.576773 0.218609 5.528295-4.115742 10.194765-9.686078 10.45121z" fill="#FF7575" p-id="2182"></path><path d="M608.461392 339.744211c121.084376 46.202253 235.198476 101.834138 341.396394 165.293921 25.304037 15.07564 40.560449 48.514468 34.544487 73.671363-6.036982 25.169508-33.245443 40.493185-60.596841 34.834565a2033.895491 2033.895491 0 0 0-325.454724-40.442736" fill="#FF7575" p-id="2183"></path><path d="M597.913489 583.081683c-5.566131-0.23963-9.917299-4.872467-9.711302-10.392354 0.205997-5.511479 4.943935-9.807994 10.577332-9.564161a2044.031399 2044.031399 0 0 1 327.043846 40.711795l0.016816 0.004204c10.758104 2.228134 21.68437 0.567544 30.9038-4.721122 9.038657-5.175157 15.285841-13.23848 17.471935-22.769009 4.952343-21.209315-8.538378-50.259139-29.924262-62.988931-105.802739-63.148685-219.509049-118.4989-340.164614-164.448912-5.738496-2.190298-8.500542-8.059119-6.125266-13.133379 2.379479-5.07426 9.038657-7.407495 14.831806-5.196177 121.513187 46.454495 236.043485 102.372253 342.636581 166.143134 29.508063 17.606464 46.30315 55.043321 39.114264 84.404244-3.569219 14.83601-13.318356 27.237889-27.200052 35.128846-13.721943 7.798469-29.810753 10.266233-45.584261 7.003909l-0.02102-0.004204a2024.07068 2024.07068 0 0 0-323.865603-40.177883z" fill="#FF7575" p-id="2184"></path><path d="M426.813808 745.777515l-21.242947-473.541564c-2.598088-47.446645 11.443361-209.402568 100.736887-209.276448l4.393208 0.033633c88.322396 1.278024 104.02864 151.164187 101.52304 198.409038L591.187046 744.953526" fill="#FFB875" p-id="2185" data-spm-anchor-id="a313x.search_index.0.i1.94d03a81jrBsB8" class="selected"></path><path d="M590.749828 754.938089c-5.09528-0.197589-9.055473-4.805202-8.849477-10.320885l18.628043-483.753145c0.710481-19.468848-1.433573-68.269189-16.769863-113.416232-11.329852-33.585969-33.913883-74.079154-73.057575-74.444904l-4.393208-0.037836c-39.290833-0.222813-61.82862 43.112293-73.015535 79.245903-13.894308 44.394522-16.992676 95.881236-16.071994 119.591946l18.876079 473.541564c0.214405 5.540907-3.73738 10.198969-8.836864 10.447007-5.091076 0.256446-9.446448-3.993825-9.723913-9.534733L393.925707 272.723618c-1.017374-21.36066 0.403587-75.121753 15.588531-125.296811 12.830689-42.927316 41.136401-94.762965 96.780898-94.472887 1.475613 0.008408 2.947023 0.02102 4.418432 0.037836 103.818439 1.668999 115.71163 166.218806 113.210234 209.015798l-23.445857 483.336946c-0.277466 5.511479-4.624429 9.791178-9.728117 9.593589z" fill="#FFB875" p-id="2186"></path><path d="M486.326009 811.953099c17.900746-0.348934 35.805695-0.433015 53.706441-0.243834l-2.774658 167.269813c-16.231747-0.088285-32.467698 0.067264-48.695241 0.462443l-2.236542-167.488422z" fill="#803B64" p-id="2187"></path></svg>